<svg width="22" height="22" viewBox="0 0 22 22" fill="none" xmlns="http://www.w3.org/2000/svg">
<path d="M9.30521 4.99107L5.92221 1.08607C5.53221 0.636068 4.81721 0.638068 4.36421 1.09207L1.58221 3.87907C0.754209 4.70807 0.517209 5.93907 0.996209 6.92607C3.85783 12.851 8.63625 17.6362 14.5572 20.5061C15.5432 20.9851 16.7732 20.7481 17.6012 19.9191L20.4092 17.1061C20.8642 16.6511 20.8652 15.9321 20.4112 15.5421L16.4912 12.1771C16.0812 11.8251 15.4442 11.8711 15.0332 12.2831L13.6692 13.6491C13.5994 13.7223 13.5075 13.7705 13.4076 13.7864C13.3077 13.8023 13.2053 13.785 13.1162 13.7371C10.8867 12.4532 9.0372 10.6013 7.75621 8.37007C7.70824 8.28082 7.69087 8.17829 7.70676 8.07822C7.72266 7.97815 7.77094 7.88606 7.84421 7.81607L9.20421 6.45507C9.61621 6.04107 9.66121 5.40107 9.30521 4.99007V4.99107Z" stroke="white" stroke-width="1.5" stroke-linecap="round" stroke-linejoin="round"/>
</svg>
